<?xml version="1.0" encoding="UTF-8"?><svg width="240" height="220" viewBox="0 0 240 220" xmlns="http://www.w3.org/2000/svg">	<path fill-rule="evenodd" clip-rule="evenodd" d="M75.816 -1.32871e-06H164.187C175.947 -1.32871e-06 185.567 9.62134 185.567 21.38V109.929C185.567 121.688 175.947 131.308 164.187 131.308H75.816C64.0574 131.308 54.436 121.688 54.436 109.929V21.38C54.436 9.62134 64.0574 -1.32871e-06 75.816 -1.32871e-06ZM78.2254 100.468V30.8387C78.2254 27.0107 81.3587 23.8814 85.184 23.8814H154.823C158.647 23.8814 161.777 27.0107 161.777 30.8387V100.468C161.777 104.296 158.647 107.428 154.823 107.428H85.184C81.3587 107.428 78.2254 104.296 78.2254 100.468Z"/>	<path d="M106.075 47.7507C103.884 47.7507 102.096 49.5414 102.096 51.7307V79.5761C102.096 81.7654 103.884 83.5561 106.075 83.5561H133.927C136.116 83.5561 137.907 81.7654 137.907 79.5761V51.7307C137.907 49.5414 136.116 47.7507 133.927 47.7507H106.075Z"/>	<path d="M1.80934 163.991C1.80934 168.688 3.39068 172.387 7.34668 174.955C9.46001 176.327 12.26 177.393 15.948 178.247C28.208 181.087 30.7267 184.703 30.7333 189.255C30.7333 195.328 24.9907 200.267 17.9267 200.267C14.36 200.267 10.8147 198.976 8.26934 196.439C6.19867 194.379 5.06533 191.732 5.06533 188.987H0C0 193.085 1.67199 197 4.69333 200.017C8.07999 203.392 12.8813 205.323 17.88 205.323C22.504 205.323 26.9933 203.8 30.4773 200.719C33.9067 197.679 35.7947 193.608 35.7947 189.255C35.7707 179.02 26.3293 175.457 17.092 173.32C8.45199 171.319 6.864 168.609 6.864 163.991C6.864 158.94 11.8027 154.668 17.6506 154.668C23.6266 154.668 28.48 158.824 28.48 163.929H33.5467C33.5467 160.015 31.848 156.365 28.7653 153.668C25.7813 151.051 21.836 149.613 17.6506 149.613C8.91865 149.613 1.80934 156.064 1.80934 163.991Z"/>	<path d="M46.8014 185.252C46.8014 176.231 53.3667 169.448 62.4574 169.448C71.132 169.448 77.768 176.648 77.768 185.176C77.768 193.707 71.132 200.769 62.4574 200.769C53.512 200.769 46.8014 194.196 46.8014 185.252ZM41.9014 185.039C41.9014 196.572 50.9947 205.169 62.4574 205.169C68.4054 205.169 74.0614 202.581 77.3494 197.552H77.4907V219.713H82.3787V166.021H77.4907V172.733H77.3494C74.0614 167.633 68.4054 165.045 62.4574 165.045C51.212 165.045 41.9014 173.573 41.9014 185.039Z"/>	<path d="M120.072 186.193C120.072 190.685 119.447 194.481 116.073 197.715C113.681 199.961 111.156 200.803 107.925 200.803C99.144 200.803 96.2613 194.973 96.2613 187.035V165.895H91.3494V187.105C91.3494 191.391 91.9813 196.024 94.7187 199.464C97.88 203.469 102.936 205.227 107.925 205.227C112.985 205.227 117.968 203.052 120.215 198.343H120.355V204.309H124.992V165.895H120.072V186.193Z"/>	<path d="M136.952 185.252C136.952 176.231 143.524 169.448 152.611 169.448C161.281 169.448 167.913 176.648 167.913 185.176C167.913 193.707 161.281 200.769 152.611 200.769C143.663 200.769 136.952 194.196 136.952 185.252ZM132.056 185.039C132.056 196.572 141.148 205.169 152.611 205.169C158.555 205.169 164.145 202.581 167.497 197.552H167.643V204.263H172.533V166.021H167.643V172.733H167.497C164.213 167.561 158.623 165.045 152.611 165.045C141.357 165.045 132.056 173.573 132.056 185.039Z"/>	<path d="M187.327 171.545H187.199V166.021H182.301V204.263H187.199V181.891C187.199 175.04 191.389 170.773 198.099 170.217V165.045C193.129 165.395 189.428 166.648 187.327 171.545Z"/>	<path d="M220.008 169.448C227.697 169.448 233.703 175.04 234.963 182.52H205.111C206.305 175.04 212.381 169.448 220.008 169.448ZM200.081 185.176C200.081 196.149 208.957 205.169 220.008 205.169C228.467 205.169 236.012 199.721 238.807 191.751H233.635C231.541 197.412 225.807 200.769 219.936 200.769C212.451 200.769 205.461 194.477 205.111 186.925H239.925C239.925 186.436 240 186.016 240 185.528C240 174.48 231.123 165.045 219.936 165.045C208.957 165.045 200.081 174.271 200.081 185.176Z"/></svg>